<svg width="44" height="44" viewBox="0 0 44 44" fill="none" xmlns="http://www.w3.org/2000/svg">
<path d="M17.0684 26.95L19.8184 29.7L27.1517 22.3667" stroke="#2F3140" stroke-width="3" stroke-linecap="round" stroke-linejoin="round"/>
<path d="M18.3327 11H25.666C29.3327 11 29.3327 9.16666 29.3327 7.33332C29.3327 3.66666 27.4993 3.66666 25.666 3.66666H18.3327C16.4993 3.66666 14.666 3.66666 14.666 7.33332C14.666 11 16.4993 11 18.3327 11Z" stroke="#2F3140" stroke-width="3" stroke-miterlimit="10" stroke-linecap="round" stroke-linejoin="round"/>
<path d="M29.3333 7.37C35.4383 7.7 38.5 9.95499 38.5 18.3333V29.3333C38.5 36.6667 36.6667 40.3333 27.5 40.3333H16.5C7.33333 40.3333 5.5 36.6667 5.5 29.3333V18.3333C5.5 9.97333 8.56167 7.7 14.6667 7.37" stroke="#2F3140" stroke-width="3" stroke-miterlimit="10" stroke-linecap="round" stroke-linejoin="round"/>
</svg>
